<svg width="235" height="40" viewBox="0 0 235 40" fill="none" xmlns="http://www.w3.org/2000/svg">
<g clip-path="url(#clip0_1202_1687)">
<path d="M40.1675 0H10.6678C10.5314 0 10.4169 0.102775 10.4024 0.238295L9.19317 11.5298C9.18345 11.6205 9.26561 11.6939 9.3547 11.6742L39.9583 4.90343C40.0805 4.87639 40.1675 4.76812 40.1675 4.64307V0Z" fill="#1B2B49"/>
<path d="M8.10492 0.297532C8.12341 0.139097 7.99947 0 7.83983 0H0.132812V13.3821C0.132812 13.5527 0.29078 13.6793 0.457407 13.6425L6.43171 12.3207C6.59821 12.2839 6.72308 12.1457 6.74282 11.9765L8.10492 0.297532Z" fill="#9B9B9B"/>
<path d="M0 27.9798C0 28.1234 0.113766 28.2413 0.257368 28.2464L21.0919 28.9898C21.2694 28.9961 21.4035 28.8305 21.3603 28.6584L17.2204 12.2017C17.1853 12.0622 17.0458 11.9756 16.905 12.0061L0.210378 15.6202C0.0876039 15.6468 0 15.7553 0 15.8809V27.9798Z" fill="#1B2B49"/>
<path d="M24.104 28.9504C24.1338 29.0643 24.2349 29.1451 24.3526 29.1492L39.8915 29.7038C40.0425 29.7091 40.1679 29.5883 40.1679 29.4372V7.18865C40.1679 7.01813 40.0099 6.89142 39.8433 6.92829L19.7757 11.368C19.6279 11.4007 19.5369 11.5496 19.5752 11.696L24.104 28.9504Z" fill="#B7B7B7"/>
<path d="M26.84 31.6353C26.9108 31.5505 26.8537 31.4214 26.7433 31.4167L0.411053 30.2971C0.259335 30.2906 0.132812 30.4118 0.132812 30.5635V39.9995H19.6763C19.7953 39.9995 19.9079 39.9469 19.9839 39.8557L26.84 31.6353Z" fill="#595959"/>
<path d="M40.1676 32.2446C40.1676 32.101 40.0539 31.9832 39.9101 31.978L30.3521 31.637C30.2302 31.6327 30.1129 31.6842 30.0335 31.7768L23.1983 39.7672C23.1242 39.8538 23.1858 39.9872 23.2997 39.9872H40.1676V32.2446Z" fill="#1B2B49"/>
<path d="M59.6503 32.1607C58.0667 32.1607 56.8212 31.8496 55.9138 31.2273C55.0241 30.6051 54.4014 29.7607 54.0455 28.694C53.6896 27.6096 53.5117 26.3651 53.5117 24.9607V17.254C53.5117 15.7784 53.6896 14.4984 54.0455 13.414C54.4014 12.3296 55.0241 11.494 55.9138 10.9073C56.8212 10.3207 58.0667 10.0273 59.6503 10.0273C61.1449 10.0273 62.3103 10.2851 63.1466 10.8007C64.0006 11.2985 64.6056 12.0185 64.9615 12.9607C65.3174 13.9029 65.4952 14.9963 65.4952 16.2407V18.054H61.7054V16.1873C61.7054 15.5829 61.6697 15.0317 61.5986 14.534C61.5452 14.0363 61.3761 13.6451 61.0915 13.3607C60.8246 13.0585 60.3531 12.9073 59.677 12.9073C59.0008 12.9073 58.5026 13.0673 58.1824 13.3873C57.8798 13.6896 57.6842 14.1073 57.5952 14.6407C57.5062 15.1563 57.4617 15.7429 57.4617 16.4007V25.7873C57.4617 26.5696 57.5241 27.2184 57.6486 27.734C57.7731 28.2317 57.9955 28.614 58.3158 28.8807C58.6538 29.1296 59.1075 29.254 59.677 29.254C60.3353 29.254 60.7979 29.1029 61.0648 28.8007C61.3495 28.4807 61.5275 28.0629 61.5986 27.5473C61.6697 27.0317 61.7054 26.454 61.7054 25.814V23.8673H65.4952V25.6007C65.4952 26.8807 65.3262 28.0184 64.9881 29.014C64.6501 29.9917 64.054 30.7651 63.2 31.334C62.3637 31.8851 61.1805 32.1607 59.6503 32.1607Z" fill="#1B2B49"/>
<path d="M70.942 31.8656V13.1723H67.499V10.2656H78.2815V13.1723H74.892V31.8656H70.942Z" fill="#1B2B49"/>
<path d="M80.7812 31.8656V10.2656H87.1333C88.4323 10.2656 89.482 10.5056 90.2827 10.9856C91.1012 11.4656 91.6972 12.1679 92.0709 13.0923C92.4624 13.999 92.658 15.1012 92.658 16.399C92.658 17.8034 92.4178 18.9412 91.9374 19.8123C91.457 20.6656 90.781 21.2879 89.909 21.679C89.055 22.07 88.0408 22.2656 86.8664 22.2656H84.7313V31.8656H80.7812ZM84.7313 19.4923H86.2259C86.9377 19.4923 87.4892 19.3946 87.8806 19.199C88.2899 18.9856 88.5657 18.6567 88.708 18.2123C88.8681 17.75 88.9482 17.1367 88.9482 16.3723C88.9482 15.59 88.886 14.959 88.7614 14.479C88.6546 13.9812 88.4056 13.6167 88.0141 13.3856C87.6404 13.1545 87.0445 13.039 86.2259 13.039H84.7313V19.4923Z" fill="#1B2B49"/>
<path d="M101.261 32.1607C99.731 32.1607 98.5123 31.8763 97.6048 31.3073C96.6974 30.7384 96.0479 29.9207 95.6565 28.854C95.2651 27.7873 95.0693 26.5251 95.0693 25.0673V16.9873C95.0693 15.5296 95.2651 14.2851 95.6565 13.254C96.0479 12.2051 96.6974 11.4051 97.6048 10.854C98.5123 10.3029 99.731 10.0273 101.261 10.0273C102.827 10.0273 104.055 10.3029 104.944 10.854C105.852 11.4051 106.501 12.2051 106.893 13.254C107.302 14.2851 107.507 15.5296 107.507 16.9873V25.094C107.507 26.534 107.302 27.7873 106.893 28.854C106.501 29.9029 105.852 30.7207 104.944 31.3073C104.055 31.8763 102.827 32.1607 101.261 32.1607ZM101.261 29.254C101.92 29.254 102.4 29.1117 102.702 28.8273C103.023 28.5429 103.236 28.1517 103.343 27.654C103.45 27.1563 103.503 26.614 103.503 26.0273V16.0807C103.503 15.4763 103.45 14.934 103.343 14.454C103.236 13.974 103.023 13.6007 102.702 13.334C102.4 13.0496 101.92 12.9073 101.261 12.9073C100.638 12.9073 100.167 13.0496 99.8467 13.334C99.5265 13.6007 99.3129 13.974 99.2062 14.454C99.0994 14.934 99.0461 15.4763 99.0461 16.0807V26.0273C99.0461 26.614 99.0905 27.1563 99.1795 27.654C99.2863 28.1517 99.4998 28.5429 99.82 28.8273C100.14 29.1117 100.621 29.254 101.261 29.254Z" fill="#1B2B49"/>
<path d="M111.016 31.868V10.268H114.245V23.8946L120.17 10.268H122.812V31.868H119.556V18.028L113.604 31.868H111.016ZM117.234 8.5613C115.953 8.5613 114.984 8.21464 114.325 7.5213C113.685 6.8102 113.364 5.85908 113.364 4.66797H115.446C115.446 5.30797 115.58 5.79686 115.846 6.13464C116.113 6.47241 116.576 6.6413 117.234 6.6413C117.875 6.6413 118.329 6.47241 118.595 6.13464C118.862 5.77908 118.996 5.2902 118.996 4.66797H121.078C121.078 5.85908 120.748 6.8102 120.09 7.5213C119.449 8.21464 118.498 8.5613 117.234 8.5613Z" fill="#1B2B49"/>
<path d="M131.629 31.9739C130.348 31.9739 129.334 31.7249 128.587 31.2272C127.839 30.7295 127.306 30.0183 126.985 29.0939C126.665 28.1695 126.505 27.0849 126.505 25.8405V24.8805H128.427V25.7605C128.427 26.6849 128.498 27.4939 128.64 28.1872C128.8 28.8805 129.112 29.4139 129.574 29.7872C130.037 30.1605 130.722 30.3472 131.629 30.3472C132.608 30.3472 133.337 30.1428 133.818 29.7339C134.298 29.3249 134.618 28.7561 134.779 28.0272C134.956 27.2983 135.045 26.4539 135.045 25.4939V21.3605H130.428V19.9739H135.045V16.3205C135.045 15.2539 134.939 14.3649 134.725 13.6539C134.529 12.925 134.182 12.3916 133.684 12.0539C133.186 11.6983 132.501 11.5205 131.629 11.5205C130.722 11.5205 130.037 11.7161 129.574 12.1072C129.129 12.4983 128.827 13.0405 128.667 13.7339C128.507 14.4272 128.427 15.2449 128.427 16.1872V17.2272H126.505V16.3205C126.505 15.0583 126.647 13.9472 126.932 12.9872C127.234 12.0094 127.759 11.245 128.507 10.6939C129.254 10.1427 130.295 9.86719 131.629 9.86719C133.088 9.86719 134.209 10.1783 134.992 10.8005C135.793 11.405 136.344 12.2139 136.647 13.2272C136.95 14.2405 137.101 15.3783 137.101 16.6405V25.2005C137.101 26.5339 136.94 27.7161 136.62 28.7472C136.317 29.7605 135.766 30.5516 134.965 31.1205C134.182 31.6895 133.071 31.9739 131.629 31.9739Z" fill="#1B2B49"/>
<path d="M140.94 31.8656V10.2656H142.996V20.1856H144.517L148.947 10.2656H151.002L146.305 20.6656L151.723 31.8656H149.668L144.543 21.279H142.996V31.8656H140.94Z" fill="#1B2B49"/>
<path d="M159.553 32.1347C158.111 32.1347 156.981 31.8591 156.163 31.308C155.362 30.7391 154.793 29.957 154.455 28.9614C154.135 27.948 153.975 26.7924 153.975 25.4947V16.5347C153.975 15.2191 154.143 14.0814 154.482 13.1214C154.837 12.1436 155.416 11.388 156.217 10.8547C157.035 10.3214 158.146 10.0547 159.553 10.0547C160.941 10.0547 162.035 10.3214 162.835 10.8547C163.654 11.388 164.231 12.1436 164.57 13.1214C164.908 14.0814 165.077 15.2191 165.077 16.5347V25.5214C165.077 26.8191 164.908 27.9658 164.57 28.9614C164.25 29.9391 163.69 30.7124 162.889 31.2814C162.088 31.8503 160.975 32.1347 159.553 32.1347ZM159.553 30.508C160.495 30.508 161.215 30.3214 161.715 29.948C162.212 29.557 162.55 29.0236 162.729 28.348C162.924 27.6547 163.022 26.8547 163.022 25.948V16.1614C163.022 15.2547 162.924 14.4636 162.729 13.788C162.55 13.1125 162.212 12.5969 161.715 12.2414C161.215 11.868 160.495 11.6814 159.553 11.6814C158.592 11.6814 157.853 11.868 157.337 12.2414C156.838 12.5969 156.491 13.1125 156.297 13.788C156.118 14.4636 156.03 15.2547 156.03 16.1614V25.948C156.03 26.8547 156.118 27.6547 156.297 28.348C156.491 29.0236 156.838 29.557 157.337 29.948C157.853 30.3214 158.592 30.508 159.553 30.508Z" fill="#1B2B49"/>
<path d="M167.518 31.8923V30.3456C168.033 30.3279 168.469 30.2746 168.825 30.1856C169.18 30.079 169.474 29.8567 169.706 29.519C169.954 29.1812 170.16 28.63 170.32 27.8656C170.497 27.1012 170.658 26.0523 170.8 24.719C170.961 23.3856 171.121 21.679 171.281 19.599L171.921 10.2656H180.329V31.8656H178.273V11.8123H173.736L173.229 19.599C173.069 21.6434 172.909 23.3856 172.749 24.8256C172.606 26.2479 172.419 27.43 172.188 28.3723C171.956 29.2967 171.645 30.0256 171.254 30.559C170.88 31.0746 170.391 31.43 169.786 31.6256C169.18 31.8212 168.425 31.91 167.518 31.8923Z" fill="#1B2B49"/>
<path d="M189.76 32.1347C188.318 32.1347 187.188 31.8591 186.37 31.308C185.569 30.7391 185 29.957 184.662 28.9614C184.342 27.948 184.182 26.7924 184.182 25.4947V16.5347C184.182 15.2191 184.35 14.0814 184.689 13.1214C185.044 12.1436 185.623 11.388 186.424 10.8547C187.242 10.3214 188.353 10.0547 189.76 10.0547C191.148 10.0547 192.242 10.3214 193.043 10.8547C193.861 11.388 194.438 12.1436 194.777 13.1214C195.115 14.0814 195.284 15.2191 195.284 16.5347V25.5214C195.284 26.8191 195.115 27.9658 194.777 28.9614C194.457 29.9391 193.897 30.7124 193.096 31.2814C192.295 31.8503 191.182 32.1347 189.76 32.1347ZM189.76 30.508C190.702 30.508 191.422 30.3214 191.922 29.948C192.419 29.557 192.757 29.0236 192.936 28.348C193.131 27.6547 193.229 26.8547 193.229 25.948V16.1614C193.229 15.2547 193.131 14.4636 192.936 13.788C192.757 13.1125 192.419 12.5969 191.922 12.2414C191.422 11.868 190.702 11.6814 189.76 11.6814C188.799 11.6814 188.06 11.868 187.545 12.2414C187.045 12.5969 186.698 13.1125 186.504 13.788C186.325 14.4636 186.237 15.2547 186.237 16.1614V25.948C186.237 26.8547 186.325 27.6547 186.504 28.348C186.698 29.0236 187.045 29.557 187.545 29.948C188.06 30.3214 188.799 30.508 189.76 30.508Z" fill="#1B2B49"/>
<path d="M199.192 31.8656V10.2656H206.852V11.839H201.221V31.8656H199.192Z" fill="#1B2B49"/>
<path d="M209.708 31.8656V10.2656H211.523V27.3856L218.516 10.2656H220.09V31.8656H218.275V14.6656L211.309 31.8656H209.708Z" fill="#1B2B49"/>
<path d="M223.006 31.8656L227.41 22.079C226.361 21.6523 225.577 20.9234 225.062 19.8923C224.546 18.8434 224.287 17.59 224.287 16.1323C224.287 15.0479 224.466 14.07 224.821 13.199C225.194 12.3101 225.818 11.599 226.689 11.0656C227.579 10.5323 228.78 10.2656 230.292 10.2656H234.883V31.8656H232.828V22.6123H230.105C229.998 22.6123 229.838 22.6123 229.625 22.6123C229.43 22.5946 229.278 22.5856 229.171 22.5856L225.301 31.8656H223.006ZM230.454 21.119H232.828V11.7856H230.372C229.056 11.7856 228.042 12.1234 227.331 12.799C226.618 13.4567 226.263 14.559 226.263 16.1056C226.263 17.7767 226.574 19.03 227.197 19.8656C227.838 20.7012 228.923 21.119 230.454 21.119Z" fill="#1B2B49"/>
</g>
<defs>
<clipPath id="clip0_1202_1687">
<rect width="235" height="40" fill="white"/>
</clipPath>
</defs>
</svg>
