<svg width="56" height="26" fill="none" xmlns="http://www.w3.org/2000/svg"><path d="M32.118 10.31c0 .201.163.364.363.364h.668a.363.363 0 1 0 0-.727h-.668c-.2 0-.363.163-.363.364Z" fill="#195557"/><path d="M36.881 12.278c-.075 0-.148.007-.22.02l-2.397-3.97a.359.359 0 0 0 .027-.038l1.61-2.552a.363.363 0 0 0-.267-.554l-2.642-.293.3-2.636a.363.363 0 0 0-.482-.383l-2.508.876-.876-2.505a.364.364 0 0 0-.6-.136l-1.878 1.879-1.876-1.88a.364.364 0 0 0-.601.137l-.876 2.505-2.508-.876a.364.364 0 0 0-.482.383l.3 2.636-2.642.293a.364.364 0 0 0-.267.554l1.416 2.245-2.25 1.41a.363.363 0 0 0 0 .615l2.25 1.41-1.416 2.245a.363.363 0 0 0 .307.557l17.458.02a1.303 1.303 0 0 0 2.422-.662c0-.716-.584-1.3-1.302-1.3Zm-1.3 1.235-6.486-.007c-.859-2.904 1.268-5.162 3.749-6.124l3.161 5.235a1.296 1.296 0 0 0-.424.896Zm-15.36-2.015a.363.363 0 0 0-.114-.501L18.039 9.7l2.068-1.296a.363.363 0 0 0 .114-.5l-1.3-2.063 2.427-.269a.364.364 0 0 0 .32-.402l-.275-2.422 2.305.805a.365.365 0 0 0 .464-.223l.805-2.3 1.724 1.726a.364.364 0 0 0 .515 0l1.725-1.726.804 2.3a.363.363 0 0 0 .464.223l2.305-.805-.276 2.422a.363.363 0 0 0 .322.402l2.426.27-1.13 1.792-.534-.883a.364.364 0 0 0-.43-.156c-1.668.577-3.039 1.584-3.858 2.835-.817 1.247-1.05 2.647-.684 4.075l-9.378-.01 1.26-1.997Zm16.66 2.654a.575.575 0 1 1 0-1.15.575.575 0 0 1 0 1.15ZM7.195 25.755c.02 0 .03.02.03.061 0 .041-.01.062-.03.062-.238 0-.43-.004-.572-.01l-.787-.01-.92.01c-.123.006-.29.01-.5.01-.021 0-.032-.02-.032-.062 0-.04.01-.06.031-.06.252 0 .436-.018.552-.052a.343.343 0 0 0 .235-.194c.041-.095.061-.248.061-.459v-2.346h-3.3v2.346c0 .204.02.357.06.46.041.095.12.16.236.193.116.034.3.051.552.051.013 0 .02.02.02.061 0 .041-.007.062-.02.062-.239 0-.43-.004-.573-.01l-.889-.01-.766.01c-.137.006-.324.01-.563.01-.013 0-.02-.02-.02-.062 0-.04.007-.06.02-.06.239 0 .413-.018.522-.052a.34.34 0 0 0 .225-.194c.04-.102.06-.255.06-.459v-4.723c0-.204-.02-.353-.06-.449a.34.34 0 0 0-.225-.193c-.103-.041-.27-.062-.501-.062-.02 0-.03-.02-.03-.06 0-.042.01-.062.03-.062l.552.01c.313.014.565.02.756.02.259 0 .559-.006.9-.02l.562-.01c.013 0 .02.02.02.061 0 .041-.007.061-.02.061-.246 0-.426.02-.542.062a.406.406 0 0 0-.245.214c-.041.095-.062.245-.062.449v2.07h3.301v-2.07c0-.204-.02-.354-.06-.45a.37.37 0 0 0-.236-.213c-.116-.041-.3-.062-.552-.062-.02 0-.03-.02-.03-.06 0-.042.01-.062.03-.062l.5.01c.342.014.648.02.92.02.185 0 .447-.006.788-.02l.572-.01c.02 0 .03.02.03.061 0 .041-.01.061-.03.061-.232 0-.405.02-.521.062a.34.34 0 0 0-.225.193 1.439 1.439 0 0 0-.051.45v4.722c0 .204.017.357.051.46a.34.34 0 0 0 .225.193c.109.034.283.051.521.051ZM12.588 24.256c0-.014.014-.02.04-.02a.07.07 0 0 1 .052.02c.02.006.03.013.03.02-.068.53-.102 1.013-.102 1.449 0 .054-.01.095-.03.122-.02.02-.061.03-.123.03H7.938c-.02 0-.03-.02-.03-.06 0-.041.01-.062.03-.062.218 0 .375-.017.47-.05a.307.307 0 0 0 .204-.195c.034-.102.051-.255.051-.459v-4.723c0-.204-.017-.353-.05-.449a.307.307 0 0 0-.205-.193c-.102-.041-.259-.062-.47-.062-.02 0-.03-.02-.03-.06 0-.042.01-.062.03-.062h4.333c.068 0 .102.03.102.092l.02 1.357c0 .013-.02.023-.06.03-.035.007-.055 0-.062-.02-.109-.395-.293-.687-.552-.878-.259-.19-.6-.285-1.022-.285h-.306c-.205 0-.355.044-.45.132-.095.089-.143.225-.143.409v2.08h.848c.395 0 .698-.068.91-.204a.643.643 0 0 0 .317-.57c0-.021.017-.031.05-.031.042 0 .062.01.062.03l-.01.918.01.49c.014.231.02.415.02.55 0 .014-.02.021-.06.021-.042 0-.062-.007-.062-.02a.758.758 0 0 0-.327-.653c-.211-.163-.518-.245-.92-.245h-.838v2.306c0 .197.037.343.112.438.075.095.194.143.358.143h.337c.532 0 .958-.109 1.278-.326.32-.218.555-.555.705-1.01ZM16.49 25.918c-.218 0-.477-.01-.777-.03a20.355 20.355 0 0 0-.409-.02c-.157-.007-.334-.01-.531-.01l-.757.01c-.136.006-.32.01-.552.01-.013 0-.02-.02-.02-.062 0-.04.007-.06.02-.06.218 0 .379-.018.48-.052a.307.307 0 0 0 .205-.194c.041-.102.062-.255.062-.459v-4.723c0-.204-.02-.353-.062-.449a.307.307 0 0 0-.204-.193c-.096-.041-.249-.062-.46-.062-.02 0-.03-.02-.03-.06 0-.042.01-.062.03-.062l.542.01a12.363 12.363 0 0 0 1.605-.01c.354-.014.592-.02.715-.02.688 0 1.298.136 1.829.408.538.272.954.642 1.247 1.111.293.47.44.997.44 1.582 0 .66-.154 1.244-.46 1.754-.3.503-.71.895-1.227 1.173a3.532 3.532 0 0 1-1.686.408Zm-.102-.234c.435 0 .82-.109 1.154-.327.334-.224.593-.554.777-.99.19-.434.286-.955.286-1.56 0-.578-.088-1.102-.265-1.57-.178-.477-.43-.85-.757-1.123a1.722 1.722 0 0 0-1.134-.408c-.423 0-.712.04-.869.122-.157.082-.235.255-.235.52v4.591c0 .272.071.466.215.582.143.108.419.163.827.163ZM24.544 26c-.75 0-1.404-.143-1.962-.428-.559-.286-.985-.674-1.278-1.163a3.19 3.19 0 0 1-.44-1.653c0-.653.168-1.234.502-1.744a3.35 3.35 0 0 1 1.39-1.194c.592-.285 1.253-.428 1.982-.428.32 0 .644.027.971.081.327.048.59.113.787.194.061.02.099.048.113.082a.32.32 0 0 1 .04.153l.133 1.418c0 .02-.017.034-.05.04-.035.007-.059-.003-.072-.03-.239-.524-.57-.932-.992-1.224a2.425 2.425 0 0 0-1.43-.439c-.696 0-1.227.242-1.595.725-.361.482-.542 1.142-.542 1.978 0 .674.116 1.276.348 1.806.231.524.552.932.96 1.224.416.286.88.429 1.39.429.28 0 .495-.031.644-.092a.59.59 0 0 0 .327-.357c.069-.177.103-.439.103-.786 0-.353-.02-.598-.062-.734a.402.402 0 0 0-.265-.286c-.13-.047-.358-.071-.685-.071-.041 0-.062-.027-.062-.082 0-.02.004-.037.01-.05.014-.021.028-.032.042-.032.579.035 1.046.052 1.4.052.347 0 .708-.01 1.083-.031.014 0 .024.01.03.03.014.014.021.028.021.041 0 .048-.017.072-.05.072-.123-.007-.209.017-.256.071-.048.048-.079.15-.092.306-.014.15-.02.422-.02.816 0 .306.01.524.03.653.027.13.04.211.04.245 0 .04-.01.068-.03.082a.234.234 0 0 1-.092.04c-.879.19-1.67.286-2.371.286ZM32.779 24.256c0-.014.014-.02.04-.02a.07.07 0 0 1 .052.02c.02.006.03.013.03.02-.068.53-.102 1.013-.102 1.449 0 .054-.01.095-.03.122-.02.02-.061.03-.123.03H28.13c-.02 0-.03-.02-.03-.06 0-.041.01-.062.03-.062.218 0 .374-.017.47-.05a.307.307 0 0 0 .204-.195c.034-.102.051-.255.051-.459v-4.723c0-.204-.017-.353-.05-.449a.307.307 0 0 0-.205-.193c-.102-.041-.259-.062-.47-.062-.02 0-.03-.02-.03-.06 0-.042.01-.062.03-.062h4.333c.068 0 .102.03.102.092l.02 1.357c0 .013-.02.023-.06.03-.035.007-.055 0-.062-.02-.109-.395-.293-.687-.552-.878-.259-.19-.6-.285-1.022-.285h-.306c-.205 0-.355.044-.45.132-.095.089-.143.225-.143.409v2.08h.848c.395 0 .698-.068.91-.204a.643.643 0 0 0 .317-.57c0-.021.017-.031.05-.031.042 0 .062.01.062.03l-.01.918.01.49c.014.231.02.415.02.55 0 .014-.02.021-.06.021-.042 0-.062-.007-.062-.02a.758.758 0 0 0-.327-.653c-.212-.163-.518-.245-.92-.245h-.838v2.306c0 .197.037.343.112.438.075.095.195.143.358.143h.337c.532 0 .958-.109 1.278-.326.32-.218.555-.555.705-1.01ZM40.83 25.755c.02 0 .03.02.03.061 0 .041-.01.062-.03.062-.238 0-.43-.004-.572-.01l-.787-.01-.92.01c-.123.006-.29.01-.5.01-.021 0-.032-.02-.032-.062 0-.04.01-.06.031-.06.252 0 .436-.018.552-.052a.343.343 0 0 0 .235-.194c.041-.095.061-.248.061-.459v-2.346h-3.3v2.346c0 .204.02.357.06.46.041.095.12.16.236.193.116.034.3.051.552.051.013 0 .02.02.02.061 0 .041-.007.062-.02.062-.239 0-.43-.004-.573-.01l-.889-.01-.766.01c-.137.006-.324.01-.563.01-.013 0-.02-.02-.02-.062 0-.04.007-.06.02-.06.239 0 .413-.018.522-.052a.34.34 0 0 0 .225-.194c.04-.102.06-.255.06-.459v-4.723c0-.204-.02-.353-.06-.449a.34.34 0 0 0-.225-.193c-.102-.041-.27-.062-.501-.062-.02 0-.03-.02-.03-.06 0-.042.01-.062.03-.062l.552.01c.313.014.565.02.756.02.259 0 .559-.006.9-.02l.562-.01c.013 0 .02.02.02.061 0 .041-.007.061-.02.061-.246 0-.426.02-.542.062a.406.406 0 0 0-.245.214c-.041.095-.062.245-.062.449v2.07h3.301v-2.07c0-.204-.02-.354-.06-.45a.37.37 0 0 0-.236-.213c-.116-.041-.3-.062-.552-.062-.02 0-.03-.02-.03-.06 0-.042.01-.062.03-.062l.501.01c.34.014.647.02.92.02.184 0 .446-.006.787-.02l.572-.01c.02 0 .03.02.03.061 0 .041-.01.061-.03.061-.232 0-.405.02-.521.062a.34.34 0 0 0-.225.193 1.44 1.44 0 0 0-.051.45v4.722c0 .204.017.357.051.46a.34.34 0 0 0 .225.193c.109.034.283.051.521.051ZM44.894 26c-.633 0-1.199-.146-1.696-.439-.49-.299-.872-.7-1.145-1.203a3.544 3.544 0 0 1-.398-1.663c0-.7.177-1.299.531-1.796.354-.503.807-.88 1.36-1.132a4.119 4.119 0 0 1 1.706-.377c.647 0 1.216.153 1.707.459.49.299.865.697 1.124 1.193.266.497.399 1.024.399 1.581 0 .62-.164 1.187-.49 1.704a3.511 3.511 0 0 1-1.32 1.224c-.544.3-1.137.449-1.778.449Zm.338-.255c.381 0 .722-.109 1.022-.326.306-.225.545-.548.715-.97.17-.428.256-.938.256-1.53 0-.625-.096-1.183-.287-1.673-.19-.496-.466-.884-.827-1.163a2.014 2.014 0 0 0-1.268-.418c-.62 0-1.097.235-1.43.704-.334.462-.501 1.112-.501 1.948 0 .66.099 1.252.296 1.775.205.517.48.922.828 1.214a1.83 1.83 0 0 0 1.196.439ZM53.159 26c-.75 0-1.404-.143-1.962-.428-.56-.286-.985-.674-1.278-1.163a3.191 3.191 0 0 1-.44-1.653c0-.653.167-1.234.501-1.744a3.35 3.35 0 0 1 1.39-1.194c.593-.285 1.254-.428 1.983-.428.32 0 .644.027.97.081.328.048.59.113.788.194.061.02.099.048.112.082a.32.32 0 0 1 .041.153l.133 1.418c0 .02-.017.034-.051.04-.034.007-.058-.003-.072-.03-.238-.524-.569-.932-.991-1.224a2.425 2.425 0 0 0-1.43-.439c-.696 0-1.227.242-1.595.725-.361.482-.542 1.142-.542 1.978 0 .674.116 1.276.348 1.806.231.524.551.932.96 1.224.416.286.88.429 1.39.429.28 0 .494-.031.644-.092a.59.59 0 0 0 .327-.357c.068-.177.102-.439.102-.786 0-.353-.02-.598-.06-.734a.402.402 0 0 0-.267-.286c-.13-.047-.357-.071-.684-.071-.041 0-.062-.027-.062-.082 0-.02.004-.037.01-.05.014-.021.028-.032.041-.032a25 25 0 0 0 1.4.052c.348 0 .71-.01 1.084-.031.014 0 .024.01.03.03.014.014.021.028.021.041 0 .048-.017.072-.051.072-.123-.007-.208.017-.256.071-.047.048-.078.15-.092.306-.013.15-.02.422-.02.816 0 .306.01.524.03.653.028.13.042.211.042.245 0 .04-.01.068-.031.082a.233.233 0 0 1-.092.04c-.88.19-1.67.286-2.371.286ZM40 8.345h14.532v.605H40v-.605ZM.643 8.345h13.926v.605H.643v-.605Z" fill="#195557"/></svg>