<?xml version="1.0" encoding="UTF-8"?><!DOCTYPE svg PUBLIC "-//W3C//DTD SVG 1.1//EN" "http://www.w3.org/Graphics/SVG/1.1/DTD/svg11.dtd"><svg xmlns="http://www.w3.org/2000/svg" xmlns:xlink="http://www.w3.org/1999/xlink"><symbol id="basket"><g fill="none"><path d="M8.991 24.342c1.051 0 1.903-.8 1.903-1.788s-.852-1.788-1.903-1.788c-1.051 0-1.903.8-1.903 1.788 0 .987.852 1.788 1.903 1.788ZM20.554 24.342c1.051 0 1.903-.8 1.903-1.788s-.852-1.788-1.903-1.788c-1.051 0-1.903.8-1.903 1.788 0 .987.852 1.788 1.903 1.788ZM25.697 3.179a.84.84 0 0 0-.29-.216.89.89 0 0 0-.362-.078H7.435l.55 1.59h15.952L21.68 14.01H8.99L5.125 2.51a.789.789 0 0 0-.211-.323.858.858 0 0 0-.347-.193L1.1.993a.902.902 0 0 0-.647.058c-.2.099-.348.268-.415.47A.755.755 0 0 0 .1 2.13a.84.84 0 0 0 .501.39l3.037.873 3.882 11.524-1.387 1.065-.11.103a2.044 2.044 0 0 0-.55 1.335c-.012.492.158.973.482 1.359.23.263.524.472.856.61.332.138.693.201 1.056.185h14.117c.225 0 .44-.084.598-.233a.771.771 0 0 0 .248-.562c0-.21-.089-.413-.248-.562a.874.874 0 0 0-.598-.233H7.731a.594.594 0 0 1-.276-.077.55.55 0 0 1-.2-.195.507.507 0 0 1 .002-.523L9.295 15.6h13.06a.882.882 0 0 0 .541-.168.79.79 0 0 0 .305-.452l2.682-11.126a.748.748 0 0 0-.01-.358.78.78 0 0 0-.176-.317Z" fill="#195557"/></g></symbol><symbol id="call" viewBox="0 0 13 11"><path d="m8.667 7.818 1.12-.948c.15-.126.341-.212.549-.248.207-.036.423-.02.62.045l1.364.461c.2.069.37.185.492.336.12.15.186.328.188.51v2.115a.8.8 0 0 1-.09.36.936.936 0 0 1-.25.3c-.107.086-.232.152-.37.194a1.264 1.264 0 0 1-.43.056C2.3 10.495.372 3.642.008 1.019A.785.785 0 0 1 .052.638.896.896 0 0 1 .28.304C.38.207.506.13.646.078.786.026.938 0 1.091 0h2.414c.215 0 .426.056.604.158a.96.96 0 0 1 .395.417L5.05 1.73c.08.166.1.35.059.525a.88.88 0 0 1-.294.465l-1.12.948s.645 3.693 4.973 4.15Z" fill="#195557"/></symbol><symbol id="facebook"><g fill="none"><path d="M25.59 4.373C22.673 1.472 19.11 0 15 0 10.852 0 7.278 1.473 4.378 4.375 1.473 7.277 0 10.853 0 15c0 4.108 1.472 7.672 4.373 10.59C7.275 28.517 10.85 30 15 30c4.112 0 7.675-1.483 10.593-4.405C28.518 22.673 30 19.108 30 15c0-4.147-1.483-7.723-4.41-10.627Zm-2.353 18.865c-1.895 1.899-4.06 2.98-6.57 3.309v-8.214H20V15h-3.333v-2.333a1 1 0 0 1 1.001-1H20V8.333h-2.328c-1.237 0-2.269.455-3.095 1.37-.827.912-1.244 2.025-1.244 3.347V15H10v3.333h3.333v8.217c-2.536-.325-4.71-1.408-6.595-3.307C4.447 20.937 3.333 18.24 3.333 15c0-3.277 1.112-5.98 3.404-8.267 2.283-2.288 4.986-3.4 8.263-3.4 3.242 0 5.937 1.114 8.242 3.405 2.305 2.287 3.425 4.99 3.425 8.262 0 3.235-1.122 5.932-3.43 8.238Z" fill="#fff"/></g></symbol><symbol id="heart-info"><g fill="none"><path d="M9.694 2.065A2.777 2.777 0 0 0 7.139.4a2.805 2.805 0 0 0-1.762.621A2.805 2.805 0 0 0 2.54.613a2.77 2.77 0 0 0-1.48 1.452c-.145.34-.22.7-.22 1.07 0 .35.072.715.213 1.085.12.31.29.631.507.956.344.514.818 1.05 1.406 1.592.974.9 1.94 1.522 1.98 1.547l.25.16c.11.07.252.07.362 0l.249-.16a15.922 15.922 0 0 0 1.98-1.547c.589-.543 1.062-1.078 1.407-1.592.217-.325.388-.646.506-.956.142-.37.213-.735.213-1.085a2.674 2.674 0 0 0-.22-1.07ZM5.377 7.644S1.638 5.248 1.638 3.135c0-1.07.886-1.937 1.978-1.937.768 0 1.434.428 1.761 1.054a1.983 1.983 0 0 1 1.761-1.054c1.093 0 1.978.867 1.978 1.937 0 2.113-3.739 4.509-3.739 4.509Z" fill="#195557"/></g></symbol><symbol id="heart"><g fill="none"><path d="M22.337 4.478a6.855 6.855 0 0 0-1.5-2.183A6.997 6.997 0 0 0 15.922.296 7.042 7.042 0 0 0 11.5 1.854 7.042 7.042 0 0 0 7.078.296a6.996 6.996 0 0 0-4.915 1.999A6.814 6.814 0 0 0 .11 7.165c0 .878.18 1.793.536 2.723.298.778.725 1.585 1.27 2.4.865 1.29 2.055 2.634 3.531 3.997 2.447 2.26 4.87 3.82 4.973 3.884l.625.4a.847.847 0 0 0 .91 0l.624-.4a39.985 39.985 0 0 0 4.973-3.884c1.477-1.363 2.666-2.708 3.53-3.997.547-.815.976-1.622 1.272-2.4.356-.93.535-1.845.535-2.723a6.714 6.714 0 0 0-.551-2.687ZM11.5 18.484S2.113 12.47 2.113 7.164c0-2.686 2.223-4.864 4.965-4.864 1.928 0 3.6 1.076 4.422 2.647A4.979 4.979 0 0 1 15.922 2.3c2.742 0 4.965 2.178 4.965 4.865 0 5.305-9.387 11.319-9.387 11.319Z" fill="#195557"/></g></symbol><symbol id="hedgehog-stock"><g fill="gray"><path d="M11.93 4.169c-.487 1.281-1.043 1.876-1.488 2.327a.888.888 0 0 1-1.181.083l-.674-.528-1.95 2.878a1.384 1.384 0 0 1-1.146.608S3.969 11.4 3.44 13.413a2.583 2.583 0 0 1-.97 1.402l-.217.162s-1.339 1.117.259 1.603c0 0 5.48 1.73 8.516-.69M21.563 1.701s-1.039.7-1.822.848c-.336.065-.662.131-.977.2l-1.804-.383c-.894 1.022-2.137 1.509-3.013 1.893M32.146 5.403c-1.131 0-1.453-.087-2.09-.602a5.293 5.293 0 0 1-1.237-1.428l-.232-.393c-1.504 0-3.114-.182-4.583-.423M35.728 10.924c-1.763-.657-2.012-2.514-2.596-3.266M9.855 18.466l-.13.27a1.14 1.14 0 0 0 1.027 1.632h.926a1.14 1.14 0 0 0 1.002-.597l1.62-2.997s1.994.826 2.707 2.868c.156.445.598.726 1.069.726h1.152a1.137 1.137 0 0 0 1.133-1.257c-.059-.528-.166-1.076-.36-1.317 0 0 8.63.249 11.392-.349a1.079 1.079 0 0 1 1.293.81c.063.282.1.599.08.932a1.124 1.124 0 0 0 1.136 1.18h.222c.64 0 1.14-.455 1.18-1.048.07-.993-.007-2.501-.88-3.662 0 0 .645-.565.633-2.328" stroke="#000" stroke-width="2" stroke-miterlimit="10" stroke-linecap="round" stroke-linejoin="round"/><path d="M8.939 10.194s1.21-1.895 2.29-.195c.728 1.147-.176 2.871-.84 3.87a1.194 1.194 0 0 1-1.45.443v0M13.615 8.701l2.847-2.349M15.964 11.846l3.416-1.172M19.024 7.658l3.444-1.59M20.746 13.755l3.902-.426M25.787 9.86l3.915.702M24.732 7.501l3.106-1.425M28.203 13.924l3.566.955" stroke="#000" stroke-width="2" stroke-miterlimit="10" stroke-linecap="round" stroke-linejoin="round"/></g></symbol><symbol id="hedgehog"><g fill="none"><path d="M12.612 4.437c-.52 1.365-1.112 1.999-1.586 2.48a.946.946 0 0 1-1.258.088l-.719-.562L6.971 9.51a1.474 1.474 0 0 1-1.22.647s-1.622 1.985-2.186 4.13a2.752 2.752 0 0 1-1.034 1.494l-.232.173s-1.426 1.19.277 1.708c0 0 5.839 1.844 9.075-.735M22.877 1.807s-1.107.745-1.942.904a43.5 43.5 0 0 0-1.04.212l-1.923-.407c-.953 1.089-2.278 1.608-3.21 2.017M34.154 5.752c-1.205 0-1.547-.093-2.227-.642a5.64 5.64 0 0 1-1.318-1.521l-.248-.419c-1.602 0-3.317-.194-4.883-.451M37.971 11.635c-1.878-.7-2.144-2.68-2.765-3.48M10.4 19.672l-.137.287a1.215 1.215 0 0 0 1.093 1.74h.987a1.213 1.213 0 0 0 1.068-.636l1.727-3.194s2.124.88 2.885 3.056c.165.474.636.774 1.138.774h1.227a1.213 1.213 0 0 0 1.208-1.34c-.062-.563-.177-1.146-.384-1.403 0 0 9.197.265 12.14-.372a1.15 1.15 0 0 1 1.378.863c.067.3.106.638.086.993a1.198 1.198 0 0 0 1.21 1.259h.237c.682 0 1.213-.486 1.258-1.118.074-1.058-.009-2.665-.94-3.902 0 0 .688-.602.675-2.48" stroke="#195557" stroke-width="2" stroke-miterlimit="10" stroke-linecap="round" stroke-linejoin="round"/><path d="M9.425 10.857s1.288-2.02 2.44-.208c.775 1.223-.188 3.06-.896 4.125a1.273 1.273 0 0 1-1.544.471v0M14.407 9.266l3.034-2.503M16.91 12.618l3.641-1.25M20.172 8.155l3.67-1.695M22.006 14.652l4.158-.454M27.378 10.502l4.172.747M26.254 7.988l3.31-1.52M29.953 14.832l3.8 1.018" stroke="#195557" stroke-width="2" stroke-miterlimit="10" stroke-linecap="round" stroke-linejoin="round"/></g></symbol><symbol id="insta"><g fill="none"><path d="M15 0C6.667 0 0 6.667 0 15s6.667 15 15 15 15-6.667 15-15S23.333 0 15 0Zm0 11.667c1.833 0 3.333 1.5 3.333 3.333 0 1.833-1.5 3.333-3.333 3.333A3.343 3.343 0 0 1 11.667 15c0-1.833 1.5-3.333 3.333-3.333Zm4.667-3.334c0-1.166 1-2 2-2s2 1 2 2-.834 2-2 2c-1.167 0-2-.833-2-2ZM15 26.667C8.5 26.667 3.333 21.5 3.333 15h5c0 3.667 3 6.667 6.667 6.667s6.667-3 6.667-6.667h5c0 6.5-5.167 11.667-11.667 11.667Z" fill="#fff"/></g></symbol><symbol id="next"><g fill="none"><path d="m10.883 23.934 12.75-11.126a1.072 1.072 0 0 0 .27-1.255 1.073 1.073 0 0 0-.27-.365L10.883.066a.265.265 0 0 0-.44.2v2.716c0 .154.067.302.183.406l8.41 7.338H.266a.268.268 0 0 0-.266.268v2.011c0 .148.12.269.267.269h18.769l-8.41 7.338a.533.533 0 0 0-.183.405v2.716c0 .228.267.352.44.2Z" fill="#70908B"/></g></symbol><symbol id="pluse"><g fill="none"><path d="M22.5 10.5h-9v-9a1.5 1.5 0 1 0-3 0v9h-9a1.5 1.5 0 1 0 0 3h9v9a1.5 1.5 0 1 0 3 0v-9h9a1.5 1.5 0 1 0 0-3Z" fill="#195557"/></g></symbol><symbol id="prev"><g fill="none"><path d="M13.117.066.367 11.192a1.071 1.071 0 0 0-.27 1.255c.063.14.155.264.27.365l12.75 11.122a.265.265 0 0 0 .44-.2v-2.716a.544.544 0 0 0-.183-.406l-8.41-7.338h18.77c.146 0 .266-.12.266-.268v-2.011a.268.268 0 0 0-.267-.269H4.964l8.41-7.338a.533.533 0 0 0 .183-.405V.267a.265.265 0 0 0-.44-.2Z" fill="#70908B"/></g></symbol><symbol id="syringe-info"><g fill="none"><path d="m8.222.633-.571.572.148.149-.905.906.558.57.907-.918.57.57-.918.906.57.56.907-.907.149.15.571-.572L8.222.633Zm-2.184 1.39-.572.572.261.26-3.947 3.96-.136.136.025.186.136 1.266.013.136.037.025-1.29 1.291h1.129L2.5 9.05l1.203.124.187.025.136-.137 3.96-3.947.26.26.571-.57-2.78-2.78Zm.26 1.403 1.117 1.117-3.81 3.823-.943-.112-.075-.074-.112-.944 3.823-3.81Z" fill="#195557"/></g></symbol><symbol id="syringe"><g fill="none"><path d="M28.377.435 26.31 2.504l.539.539-3.28 3.279 2.022 2.067 3.282-3.327 2.066 2.068-3.325 3.277 2.067 2.023 3.279-3.28.539.54 2.068-2.069L28.377.435Zm-7.906 5.031-2.069 2.069.945.943L5.063 22.807l-.495.493.09.676.494 4.581.046.493.133.09-4.67 4.672h4.088l2.921-2.92 4.356.45.675.09.493-.494 14.33-14.286.944.944 2.067-2.067L20.471 5.466Zm.943 5.078 4.044 4.042-13.792 13.836-3.414-.404-.27-.27-.404-3.414 13.836-13.79Z" fill="#195557"/></g></symbol><symbol id="tvitter"><g fill="none"><path d="M24.465 12.138c.597-.368.995-.868 1.188-1.506a6.425 6.425 0 0 1-1.741.638 2.585 2.585 0 0 0-1.97-.845c-.774 0-1.425.272-1.959.798a2.644 2.644 0 0 0-.796 1.93c0 .229.028.434.086.607-2.28-.08-4.165-1.023-5.651-2.843a2.74 2.74 0 0 0-.379 1.366c0 .964.407 1.727 1.217 2.289a3.016 3.016 0 0 1-1.217-.349c0 .689.202 1.264.609 1.77.405.5.928.82 1.565.955-.237.06-.48.09-.725.089a1.379 1.379 0 0 1-.494-.062c.174.562.494 1.015.957 1.363.462.35.995.534 1.595.55a5.327 5.327 0 0 1-3.392 1.157c-.313 0-.533-.003-.666-.028a7.557 7.557 0 0 0 4.201 1.221c1.585 0 2.987-.401 4.204-1.205 1.216-.798 2.118-1.783 2.695-2.945a7.988 7.988 0 0 0 .868-3.623v-.348a5.78 5.78 0 0 0 1.363-1.424 5.751 5.751 0 0 1-1.558.445ZM19 30c-4.15 0-7.725-1.483-10.627-4.41C5.472 22.672 4 19.108 4 15c0-4.147 1.473-7.723 4.378-10.625C11.278 1.473 14.852 0 19 0c4.11 0 7.673 1.472 10.59 4.373C32.517 7.277 34 10.853 34 15c0 4.108-1.482 7.673-4.407 10.595C26.675 28.517 23.112 30 19 30Zm0-26.667c-3.277 0-5.98 1.112-8.263 3.4C8.445 9.02 7.333 11.723 7.333 15c0 3.24 1.114 5.937 3.405 8.242 2.287 2.305 4.989 3.425 8.262 3.425 3.238 0 5.933-1.122 8.237-3.429 2.308-2.306 3.43-5.003 3.43-8.238 0-3.272-1.12-5.975-3.425-8.262-2.305-2.291-5-3.405-8.242-3.405Z" fill="#fff"/></g></symbol></svg>