<svg width="20" height="20" viewBox="0 0 20 20" fill="none" xmlns="http://www.w3.org/2000/svg">
<path d="M17.6953 12.8658C16.5728 12.8658 15.4707 12.6902 14.4264 12.3451C13.9146 12.1705 13.2855 12.3307 12.9732 12.6514L10.9118 14.2076C8.52112 12.9315 7.04853 11.4593 5.78983 9.08666L7.30019 7.07897C7.69259 6.6871 7.83333 6.11466 7.6647 5.57755C7.31809 4.52768 7.14201 3.4261 7.14201 2.30319C7.14206 1.49198 6.48211 0.832031 5.67095 0.832031H2.30411C1.49296 0.832031 0.833008 1.49198 0.833008 2.30314C0.833008 11.6011 8.39732 19.1654 17.6953 19.1654C18.5064 19.1654 19.1664 18.5054 19.1664 17.6943V14.3368C19.1663 13.5257 18.5064 12.8658 17.6953 12.8658Z" fill="#1B2B49"/>
</svg>
